<svg width="96" height="102" viewBox="0 0 96 102" fill="none" xmlns="http://www.w3.org/2000/svg">
<path d="M39.345 41.0249C39.3604 41.0375 39.373 41.0531 39.3819 41.0709C39.3908 41.0887 39.3958 41.1082 39.3966 41.1281L40.0365 47.8978C40.1296 48.9332 40.6079 49.8961 41.377 50.596C42.1461 51.2959 43.1499 51.682 44.1901 51.6778H51.8159C52.856 51.682 53.8599 51.2959 54.6289 50.596C55.398 49.8961 55.8764 48.9332 55.9694 47.8978L56.6094 41.126C56.6111 41.1056 56.617 41.0858 56.6266 41.0677C56.6361 41.0496 56.6492 41.0337 56.6651 41.0208C58.8146 39.2401 60.3622 36.8401 61.0968 34.148C61.8313 31.4559 61.717 28.6029 60.7694 25.9781C59.8219 23.3533 58.0872 21.0847 55.8021 19.4815C53.517 17.8784 50.7927 17.0189 48.0009 17.0203H47.9514C45.1635 17.0297 42.4462 17.8974 40.1692 19.5052C37.8922 21.1129 36.166 23.3828 35.2255 26.0059C34.2851 28.6291 34.1759 31.4781 34.913 34.1654C35.6501 36.8527 37.1976 39.2478 39.345 41.0249V41.0249ZM37.3652 30.2234C37.551 24.5761 42.3053 19.9646 47.9637 19.9461H48.0009C50.1904 19.9465 52.3264 20.6218 54.1179 21.8799C55.9093 23.138 57.269 24.9176 58.0116 26.9762C58.7542 29.0348 58.8436 31.2722 58.2676 33.3835C57.6916 35.4947 56.4781 37.377 54.7927 38.7738C54.4806 39.0305 54.2225 39.3465 54.0333 39.7035C53.8441 40.0605 53.7275 40.4514 53.6903 40.8536L53.0545 47.6254C53.0266 47.9341 52.8839 48.2211 52.6546 48.4297C52.4252 48.6382 52.126 48.7533 51.8159 48.752H44.1901C43.8797 48.7532 43.5801 48.6379 43.3507 48.4289C43.1213 48.2199 42.9788 47.9324 42.9514 47.6234L42.3197 40.8536C42.2828 40.4515 42.1666 40.0607 41.9777 39.7037C41.7889 39.3468 41.5311 39.0307 41.2194 38.7738C39.9629 37.7404 38.9616 36.4314 38.2932 34.9485C37.6248 33.4657 37.3072 31.8488 37.3652 30.2234V30.2234Z" fill="#4F4F4F"/>
<path d="M39.5187 29.8087C39.5663 29.8185 39.6147 29.8234 39.6632 29.8232C39.8322 29.8227 39.9957 29.7639 40.1262 29.6567C40.2568 29.5496 40.3463 29.4006 40.3796 29.2351C40.7925 27.2028 42.0125 24.5452 45.5612 23.4228C45.6574 23.3977 45.7474 23.3533 45.8259 23.2923C45.9044 23.2313 45.9697 23.155 46.0177 23.0681C46.0658 22.9811 46.0956 22.8853 46.1054 22.7864C46.1152 22.6875 46.1048 22.5877 46.0748 22.493C46.0448 22.3982 45.9959 22.3106 45.9309 22.2354C45.8659 22.1602 45.7864 22.099 45.697 22.0555C45.6076 22.012 45.5103 21.9871 45.411 21.9824C45.3117 21.9776 45.2125 21.9932 45.1194 22.028C41.8164 23.072 39.6281 25.5356 38.9448 28.9483C38.9259 29.0425 38.9257 29.1395 38.9443 29.2337C38.9629 29.3279 38.9999 29.4176 39.0532 29.4975C39.1065 29.5774 39.1751 29.6461 39.255 29.6995C39.3348 29.7529 39.4245 29.79 39.5187 29.8087Z" fill="#4F4F4F"/>
<path d="M95.9938 42.7993L70.3191 0H25.6809L19.8181 9.77392V6.5242H9.40946V27.1182L0 42.7993H8.23689L13.3215 83.7252H42.708C43.0864 83.711 43.4445 83.5508 43.7072 83.2782C43.9699 83.0056 44.1166 82.6418 44.1166 82.2634C44.1166 81.8849 43.9699 81.5211 43.7072 81.2485C43.4445 80.9759 43.0864 80.8157 42.708 80.8015H15.9061L11.1848 42.7993H35.3526C35.5493 42.8067 35.7454 42.7744 35.9293 42.7043C36.1132 42.6341 36.2811 42.5276 36.4229 42.3912C36.5646 42.2547 36.6774 42.091 36.7544 41.91C36.8315 41.7289 36.8712 41.5342 36.8712 41.3375C36.8712 41.1408 36.8315 40.946 36.7544 40.765C36.6774 40.584 36.5646 40.4203 36.4229 40.2838C36.2811 40.1474 36.1132 40.0409 35.9293 39.9707C35.7454 39.9006 35.5493 39.8682 35.3526 39.8756H5.16096L27.3386 2.92372H68.6614L90.8329 39.8756H60.6454C60.267 39.8898 59.9088 40.0501 59.6461 40.3227C59.3834 40.5953 59.2367 40.959 59.2367 41.3375C59.2367 41.716 59.3834 42.0797 59.6461 42.3523C59.9088 42.6249 60.267 42.7851 60.6454 42.7993H68.8286V47.0642C68.6236 47.1893 68.4542 47.365 68.3367 47.5744C68.2191 47.7838 68.1574 48.0198 68.1574 48.2599C68.1574 48.5 68.2191 48.7361 68.3367 48.9454C68.4542 49.1548 68.6236 49.3305 68.8286 49.4556V52.5898C68.6236 52.7149 68.4542 52.8906 68.3367 53.1C68.2191 53.3093 68.1574 53.5454 68.1574 53.7855C68.1574 54.0256 68.2191 54.2616 68.3367 54.471C68.4542 54.6804 68.6236 54.856 68.8286 54.9812V58.1174C68.5668 58.2769 68.3644 58.5176 68.2522 58.8028C68.1399 59.0879 68.124 59.402 68.2069 59.697C68.2898 59.992 68.4669 60.2519 68.7113 60.437C68.9556 60.6221 69.2538 60.7222 69.5604 60.7222C69.867 60.7222 70.1652 60.6221 70.4096 60.437C70.6539 60.2519 70.831 59.992 70.9139 59.697C70.9968 59.402 70.9809 59.0879 70.8687 58.8028C70.7565 58.5176 70.554 58.2769 70.2922 58.1174V54.9812C70.4977 54.8564 70.6676 54.6809 70.7855 54.4715C70.9034 54.262 70.9653 54.0258 70.9653 53.7855C70.9653 53.5452 70.9034 53.3089 70.7855 53.0995C70.6676 52.8901 70.4977 52.7145 70.2922 52.5898V49.4556C70.4977 49.3309 70.6676 49.1553 70.7855 48.9459C70.9034 48.7365 70.9653 48.5002 70.9653 48.2599C70.9653 48.0196 70.9034 47.7834 70.7855 47.5739C70.6676 47.3645 70.4977 47.189 70.2922 47.0642V42.7993H84.8131L80.0981 80.8015H53.292C53.0954 80.7941 52.8992 80.8264 52.7153 80.8966C52.5314 80.9667 52.3635 81.0732 52.2217 81.2097C52.08 81.3462 51.9672 81.5098 51.8902 81.6909C51.8131 81.8719 51.7734 82.0666 51.7734 82.2634C51.7734 82.4601 51.8131 82.6548 51.8902 82.8358C51.9672 83.0169 52.08 83.1805 52.2217 83.317C52.3635 83.4535 52.5314 83.56 52.7153 83.6301C52.8992 83.7003 53.0954 83.7326 53.292 83.7252H82.6785L87.7611 42.7993H95.9938ZM12.3347 9.44792H16.8908V14.6495L12.3347 22.2405V9.44792Z" fill="#4F4F4F"/>
<path d="M46.5373 64.7345V88.4626C46.5299 88.6592 46.5623 88.8553 46.6325 89.0391C46.7026 89.2229 46.8092 89.3906 46.9457 89.5323C47.0823 89.674 47.246 89.7868 47.4271 89.8637C47.6083 89.9407 47.8031 89.9804 47.9999 89.9804C48.1968 89.9804 48.3916 89.9407 48.5727 89.8637C48.7539 89.7868 48.9176 89.674 49.0541 89.5323C49.1907 89.3906 49.2972 89.2229 49.3674 89.0391C49.4376 88.8553 49.4699 88.6592 49.4626 88.4626V64.7345C49.4699 64.5379 49.4376 64.3418 49.3674 64.158C49.2972 63.9742 49.1907 63.8064 49.0541 63.6647C48.9176 63.523 48.7539 63.4103 48.5727 63.3333C48.3916 63.2563 48.1968 63.2167 47.9999 63.2167C47.8031 63.2167 47.6083 63.2563 47.4271 63.3333C47.246 63.4103 47.0823 63.523 46.9457 63.6647C46.8092 63.8064 46.7026 63.9742 46.6325 64.158C46.5623 64.3418 46.5299 64.5379 46.5373 64.7345V64.7345Z" fill="#4F4F4F"/>
<path d="M42.6194 56.5163H53.3811C53.7595 56.5021 54.1176 56.3418 54.3803 56.0692C54.643 55.7966 54.7898 55.4329 54.7898 55.0544C54.7898 54.676 54.643 54.3122 54.3803 54.0396C54.1176 53.767 53.7595 53.6068 53.3811 53.5926H42.6194C42.241 53.6068 41.8829 53.767 41.6202 54.0396C41.3575 54.3122 41.2108 54.676 41.2108 55.0544C41.2108 55.4329 41.3575 55.7966 41.6202 56.0692C41.8829 56.3418 42.241 56.5021 42.6194 56.5163Z" fill="#4F4F4F"/>
<path d="M44.5018 61.3568H51.496C51.6927 61.3642 51.8888 61.3319 52.0727 61.2617C52.2566 61.1916 52.4245 61.0851 52.5663 60.9486C52.708 60.8121 52.8208 60.6485 52.8978 60.4674C52.9749 60.2864 53.0146 60.0917 53.0146 59.8949C53.0146 59.6982 52.9749 59.5035 52.8978 59.3225C52.8208 59.1414 52.708 58.9778 52.5663 58.8413C52.4245 58.7048 52.2566 58.5983 52.0727 58.5282C51.8888 58.458 51.6927 58.4257 51.496 58.4331H44.5018C44.1136 58.4331 43.7414 58.5872 43.4669 58.8616C43.1924 59.1359 43.0382 59.508 43.0382 59.896C43.0382 60.284 43.1924 60.6561 43.4669 60.9304C43.7414 61.2047 44.1136 61.3589 44.5018 61.3589V61.3568Z" fill="#4F4F4F"/>
<path d="M63.4634 33.599C63.3901 33.9796 63.4709 34.3736 63.688 34.6947C63.9051 35.0158 64.2409 35.2377 64.6215 35.3116L68.8473 36.1369C69.2268 36.207 69.6186 36.1244 69.9375 35.9071C70.2564 35.6899 70.4765 35.3556 70.55 34.9769C70.6235 34.5982 70.5444 34.2059 70.3299 33.8852C70.1154 33.5646 69.7828 33.3416 69.4047 33.2648L65.1789 32.4394C64.7976 32.3662 64.4028 32.4472 64.0811 32.6646C63.7595 32.882 63.5373 33.218 63.4634 33.599V33.599Z" fill="#4F4F4F"/>
<path d="M67.3937 21.1408L63.4053 22.7584C63.0829 22.8804 62.814 23.1123 62.6461 23.4133C62.4782 23.7142 62.4221 24.0648 62.4879 24.4031C62.5536 24.7414 62.7368 25.0455 63.0052 25.2618C63.2735 25.4781 63.6098 25.5926 63.9544 25.5851C64.1428 25.5859 64.3294 25.5494 64.5036 25.4779L68.494 23.8623C68.8521 23.7153 69.1373 23.4325 69.2872 23.0759C69.4372 22.7192 69.4397 22.3177 69.2942 21.9592C69.1487 21.6007 68.8671 21.3144 68.5109 21.163C68.1547 21.0115 67.753 21.0072 67.3937 21.1511V21.1408Z" fill="#4F4F4F"/>
<path d="M57.4684 17.6764C57.7109 17.6771 57.9497 17.6175 58.1634 17.503C58.3771 17.3885 58.559 17.2226 58.6925 17.0203L61.0624 13.4301C61.2536 13.1077 61.3134 12.7242 61.2296 12.359C61.1457 11.9937 60.9247 11.6746 60.6121 11.4677C60.2996 11.2607 59.9194 11.1817 59.5502 11.2471C59.181 11.3124 58.851 11.517 58.6285 11.8187L56.2566 15.4088C56.1504 15.5689 56.0768 15.7484 56.0401 15.9369C56.0034 16.1254 56.0043 16.3193 56.0426 16.5075C56.081 16.6957 56.1561 16.8745 56.2636 17.0336C56.3712 17.1928 56.5091 17.3292 56.6694 17.435C56.9062 17.5923 57.1841 17.6762 57.4684 17.6764V17.6764Z" fill="#4F4F4F"/>
<path d="M49.4626 13.3826V9.07856C49.4699 8.88196 49.4376 8.6859 49.3674 8.50209C49.2972 8.31829 49.1907 8.15051 49.0541 8.00882C48.9176 7.86712 48.7539 7.7544 48.5727 7.67741C48.3916 7.60042 48.1968 7.56074 47.9999 7.56074C47.8031 7.56074 47.6083 7.60042 47.4271 7.67741C47.246 7.7544 47.0823 7.86712 46.9457 8.00882C46.8092 8.15051 46.7026 8.31829 46.6325 8.50209C46.5623 8.6859 46.5299 8.88196 46.5373 9.07856V13.3826C46.5515 13.7608 46.7119 14.1188 46.9846 14.3814C47.2573 14.6439 47.6213 14.7906 47.9999 14.7906C48.3786 14.7906 48.7425 14.6439 49.0153 14.3814C49.288 14.1188 49.4483 13.7608 49.4626 13.3826Z" fill="#4F4F4F"/>
<path d="M38.5297 17.6785C38.7938 17.6776 39.0527 17.6055 39.2791 17.4696C39.5056 17.3338 39.6911 17.1394 39.8161 16.9069C39.9411 16.6744 40.0009 16.4124 39.9892 16.1487C39.9775 15.885 39.8948 15.6294 39.7497 15.4088L37.3777 11.8207C37.1576 11.5128 36.8266 11.3021 36.4543 11.233C36.082 11.1639 35.6974 11.2416 35.3812 11.45C35.0651 11.6583 34.8421 11.981 34.759 12.3502C34.6759 12.7195 34.7392 13.1065 34.9356 13.4301L37.3076 17.0203C37.4406 17.2228 37.6219 17.389 37.8353 17.5039C38.0487 17.6188 38.2873 17.6788 38.5297 17.6785V17.6785Z" fill="#4F4F4F"/>
<path d="M33.3996 24.6628C33.472 24.4849 33.5086 24.2946 33.5073 24.1025C33.506 23.9105 33.4669 23.7206 33.3921 23.5438C33.3173 23.3669 33.2084 23.2065 33.0715 23.0717C32.9347 22.9369 32.7726 22.8305 32.5945 22.7584L28.6061 21.1407C28.2468 20.9969 27.8451 21.0012 27.4889 21.1526C27.1328 21.3041 26.8511 21.5904 26.7056 21.9489C26.5601 22.3074 26.5626 22.7089 26.7126 23.0655C26.8626 23.4222 27.1478 23.7049 27.5058 23.8519L31.4942 25.4675C31.6685 25.5387 31.855 25.5751 32.0433 25.5748C32.3346 25.5751 32.6193 25.4885 32.861 25.326C33.1026 25.1635 33.2902 24.9326 33.3996 24.6628Z" fill="#4F4F4F"/>
<path d="M30.8212 32.4415L26.5954 33.2668C26.2383 33.3361 25.9199 33.5358 25.7021 33.827C25.4843 34.1181 25.3828 34.4799 25.4174 34.8418C25.4519 35.2037 25.62 35.5398 25.8889 35.7845C26.1578 36.0293 26.5083 36.1652 26.872 36.1658C26.9656 36.1661 27.0589 36.1571 27.1507 36.139L31.3765 35.3137C31.7573 35.24 32.0932 35.0183 32.3104 34.6971C32.5276 34.3759 32.6083 33.9817 32.5346 33.6011C32.461 33.2205 32.2391 32.8847 31.9178 32.6677C31.5964 32.4506 31.202 32.37 30.8212 32.4436V32.4415Z" fill="#4F4F4F"/>
<path d="M52.3878 86.2589C52.0953 86.5137 51.9159 86.8742 51.8892 87.2611C51.8625 87.648 51.9906 88.0297 52.2454 88.3223L61.6073 99.0742H34.3926L43.7649 88.3223C43.8909 88.1774 43.9872 88.0092 44.0482 87.8272C44.1093 87.6452 44.1338 87.4529 44.1205 87.2614C44.1072 87.0699 44.0562 86.8829 43.9706 86.7111C43.885 86.5393 43.7663 86.386 43.6214 86.26C43.4765 86.134 43.3082 86.0377 43.1261 85.9768C42.944 85.9158 42.7516 85.8912 42.56 85.9046C42.3684 85.9179 42.1813 85.9688 42.0094 86.0544C41.8375 86.14 41.6841 86.2585 41.5581 86.4034L27.9785 102H68.0296L54.4522 86.4034C54.3263 86.2582 54.1729 86.1393 54.0009 86.0535C53.829 85.9676 53.6417 85.9165 53.45 85.9031C53.2582 85.8897 53.0657 85.9142 52.8834 85.9753C52.7012 86.0363 52.5327 86.1327 52.3878 86.2589V86.2589Z" fill="#4F4F4F"/>
<path d="M71.0147 67.7345V63.3706C71.0221 63.174 70.9898 62.9779 70.9196 62.7941C70.8494 62.6103 70.7429 62.4425 70.6063 62.3008C70.4698 62.1591 70.306 62.0464 70.1249 61.9694C69.9438 61.8925 69.749 61.8528 69.5521 61.8528C69.3553 61.8528 69.1605 61.8925 68.9793 61.9694C68.7982 62.0464 68.6345 62.1591 68.4979 62.3008C68.3614 62.4425 68.2548 62.6103 68.1846 62.7941C68.1145 62.9779 68.0821 63.174 68.0895 63.3706V67.7345C68.0821 67.9311 68.1145 68.1272 68.1846 68.311C68.2548 68.4948 68.3614 68.6625 68.4979 68.8042C68.6345 68.9459 68.7982 69.0587 68.9793 69.1357C69.1605 69.2126 69.3553 69.2523 69.5521 69.2523C69.749 69.2523 69.9438 69.2126 70.1249 69.1357C70.306 69.0587 70.4698 68.9459 70.6063 68.8042C70.7429 68.6625 70.8494 68.4948 70.9196 68.311C70.9898 68.1272 71.0221 67.9311 71.0147 67.7345Z" fill="#4F4F4F"/>
<path d="M39.5186 30.9374C39.325 30.9379 39.1394 31.015 39.0025 31.1519C38.8655 31.2887 38.7884 31.4742 38.7878 31.6678V31.6905C38.7978 31.8777 38.8792 32.0541 39.0154 32.1831C39.1515 32.3121 39.332 32.3841 39.5196 32.3841C39.7073 32.3841 39.8878 32.3121 40.0239 32.1831C40.1601 32.0541 40.2415 31.8777 40.2515 31.6905V31.6678C40.2509 31.4739 40.1735 31.2881 40.0361 31.1512C39.8987 31.0142 39.7126 30.9374 39.5186 30.9374V30.9374Z" fill="#4F4F4F"/>
</svg>
